<svg width="530" height="266" viewBox="0 0 530 266" fill="none" xmlns="http://www.w3.org/2000/svg">
<g opacity="0.3">
<path d="M500.767 171.508C502.542 167.152 503.458 162.71 503.458 158.199C503.458 101.906 360.851 56.2725 184.936 56.2725C170.839 56.2725 156.957 56.5667 143.345 57.1348C179.682 51.1552 220.892 47.7783 264.564 47.7783C411.16 47.7783 530 85.8072 530 132.718C530 146.693 519.453 159.88 500.767 171.508Z" fill="url(#paint0_linear_1783_1267)" fill-opacity="0.7"/>
<path d="M29.2334 93.9229C27.4585 98.2786 26.542 102.721 26.542 107.231C26.5428 163.524 169.15 209.158 345.064 209.158C359.163 209.158 373.048 208.862 386.662 208.294C350.323 214.274 309.111 217.651 265.436 217.651C118.84 217.651 0 179.623 0 132.712C0.000174658 118.737 10.5476 105.551 29.2334 93.9229Z" fill="url(#paint1_linear_1783_1267)" fill-opacity="0.7"/>
</g>
<path d="M357.938 222.408C333.678 248.854 298.835 265.436 260.117 265.436C221.401 265.435 186.558 248.856 162.297 222.411C192.71 226.211 225.703 228.282 260.118 228.282C294.574 228.282 327.563 226.204 357.938 222.408ZM367.743 210.387C334.848 215.062 298.431 217.665 260.118 217.665C221.806 217.665 185.389 215.066 152.494 210.392C152.492 210.389 152.49 210.386 152.488 210.383C185.385 215.058 221.805 217.658 260.12 217.658C298.435 217.658 334.853 215.056 367.749 210.38C367.747 210.382 367.745 210.384 367.743 210.387ZM260.117 0C333.415 0 392.835 59.4198 392.835 132.718C392.835 156.406 386.626 178.644 375.751 197.896C363.935 198.328 351.922 198.556 339.749 198.556C260.649 198.556 188.697 189.234 133.959 174.037C129.703 161.033 127.399 147.144 127.399 132.718C127.399 59.4199 186.819 8.97141e-05 260.117 0Z" fill="url(#paint2_linear_1783_1267)" fill-opacity="0.7"/>
<defs>
<linearGradient id="paint0_linear_1783_1267" x1="439.78" y1="142.638" x2="401.47" y2="22.9187" gradientUnits="userSpaceOnUse">
<stop stop-color="#6000FF"/>
<stop offset="1" stop-color="#E100FF"/>
</linearGradient>
<linearGradient id="paint1_linear_1783_1267" x1="90.2212" y1="122.793" x2="128.53" y2="242.511" gradientUnits="userSpaceOnUse">
<stop stop-color="#6000FF"/>
<stop offset="1" stop-color="#E100FF"/>
</linearGradient>
<linearGradient id="paint2_linear_1783_1267" x1="189.334" y1="61.935" x2="330.9" y2="203.501" gradientUnits="userSpaceOnUse">
<stop stop-color="#6000FF"/>
<stop offset="1" stop-color="#E100FF"/>
</linearGradient>
</defs>
</svg>
